<?xml version="1.0" encoding="utf-8"?>
<!-- Uploaded to: SVG Repo, www.svgrepo.com, Generator: SVG Repo Mixer Tools -->
<svg width="800px" height="800px" viewBox="0 -52.32 383.217 383.217" xmlns="http://www.w3.org/2000/svg"><defs><style>.a{fill:#ffffff;}.b{fill:#211715;}.c{fill:#febe69;}.d{fill:#85807f;}</style></defs><path class="a" d="M337.63,167.749c1.518-1.031,6.11-4.149,9.643-6.55,17.695,3.865,30.733,14.24,33.25,30.49a116.62,116.62,0,0,1-15.588,67.377,36.326,36.326,0,0,1-10.628,12.11c-4.655,3.268-11.157,5.61-16.927,4.9a22.464,22.464,0,0,1-13.606-7.542,47.411,47.411,0,0,1-8.309-13.205q-.444-1.032-.868-2.076H260.671a80.843,80.843,0,0,0-12.477-19.845c-4.165-4.935-12.133-9.363-20.583-12.653l-3.727-.655c-.36-.162-4.992-2.36-5.228-2.434-3.551-1.962-4.3-4.979-4.755-7.649-.087-.508-.162-.955-.21-1.347,8.669-4.055,15.565-15.123,16.8-18.243a36.381,36.381,0,0,0,1.125-3.5,4.2,4.2,0,0,0,4.778-.75,13.751,13.751,0,0,0,3.559-4.672,21.585,21.585,0,0,0,2.275-9.594,94.361,94.361,0,0,1,9.015-6.388,47.65,47.65,0,0,1,8.813-3.945c19.549,10.353,29.475,13.479,47.548,13.08,17.558-.388,23.492-3.239,29.519-6.56Z"/><path class="a" d="M145.1,71.964a6.685,6.685,0,0,1,4.885-1.612,6.2,6.2,0,0,1,5.469,3.272c1.787,3.342,1.512,9.386.122,13.086-.984,2.62-2.588,6.626-6.233,9.418a7.367,7.367,0,0,1-5.73,1.456l-.542-.109a43.231,43.231,0,0,1-2.123,5.239c-1.559,3.845-9.875,17.173-20.045,22.285a41.323,41.323,0,0,0-.43,6.623c.01,2.73.475,5.374,3.172,7.132.126.069,2.356,1.489,5.657,3.246-20.369,14.493-50.319,10.235-66.337-4.4,4.1-1.559,9.57-3.674,9.742-3.723,3.017-1.124,4.05-3.6,4.658-6.263a44.057,44.057,0,0,0,.921-5.31,42.3,42.3,0,0,1-9.282-9.009,50.815,50.815,0,0,1-9.054-18.5,7.223,7.223,0,0,1-6.093-1.734c-3.459-3.021-4.8-7.121-5.616-9.8-1.15-3.782-1.035-9.83.962-13.051A6.2,6.2,0,0,1,54.872,67.3a6.683,6.683,0,0,1,4.773,1.923s-6.8-34.6,47.417-34.6C155.951,34.617,145.1,71.964,145.1,71.964Z"/><path class="b" d="M132.247,140.828q-2.742-1.4-5.4-2.95-.759-.444-1.509-.9c-.123-.075-.248-.15-.37-.227-.088-.056-.447-.295-.253-.148a5.264,5.264,0,0,1-.542-.492c-.037-.038-.432-.483-.269-.282.126.157-.217-.329-.26-.4-.095-.157-.176-.32-.262-.482-.253-.477.05.242-.087-.232-.061-.21-.13-.414-.183-.627s-.093-.427-.135-.643c-.1-.516,0,.337-.032-.241a40.32,40.32,0,0,1,.14-6.491,2.417,2.417,0,0,0-2.4-2.4,2.452,2.452,0,0,0-2.4,2.4c-.425,4.309-.792,9.714,2.665,12.962a17.417,17.417,0,0,0,3.145,2.159q2.814,1.663,5.729,3.144a2.458,2.458,0,0,0,3.284-.861,2.425,2.425,0,0,0-.861-3.284Z"/><path class="a" d="M45.246,256.6a36.617,36.617,0,0,1-6.2,3.893c-6.363,3.118-14.28,4.021-20.651.918-7.346-3.577-11.109-11.5-13.125-19.1-3.855-14.556-3.292-29.852-1.4-44.754,1.655-13.031,4.6-26.557,13.372-36.69,7.888-9.107,30.02-18.922,45.59-23.413,16.242,15.015,47.083,19.236,67.524,3.784,13.08,3.089,22.848,6.188,32.478,13.808a28.858,28.858,0,0,1,7.214,9.211c1.661,3.175,3,8.359,3.865,11.659a247.853,247.853,0,0,1,7.026,38.71,8.469,8.469,0,0,1-3.234,3.046c-.261.074-4.868,2.272-5.253,2.434-8.645,3.29-20.315,8.373-24.575,13.308-5.808,6.726-8.04,11.859-11.026,20.5,0,0-66.636,0-88.42,0C47.405,254.854,46.346,255.754,45.246,256.6Z"/><path class="a" d="M251.275,96.973a11.552,11.552,0,0,1,1.3-4.369,5.893,5.893,0,0,1,5.355-2.948,6.413,6.413,0,0,1,4.629,1.715s-5.48-37.541,39.52-37.541c47.815,0,42.5,37.86,42.5,37.86a6.417,6.417,0,0,1,4.642-1.679A5.952,5.952,0,0,1,354.556,93c1.8,3.157,1.7,8.96.471,12.546-.873,2.539-2.3,6.424-5.722,9.2a7.065,7.065,0,0,1-5.456,1.551l-.522-.09a41.491,41.491,0,0,1-1.895,5.082c-1.362,3.654-8.7,16.213-18.038,21.59,1.422,3.772,3.477,9.218,3.477,9.218,2.781,4.51,12.01,8.078,19.088,10.991l-8.84,5.008c-6.027,3.321-11.961,6.172-29.519,6.56-18.051.4-27.975-2.72-47.474-13.046,8.881-3.236,17.935-5.481,22.209-8.347a3.916,3.916,0,0,0,1.328-1.018,3.055,3.055,0,0,0,.329-1.068q.671-3.756,1.337-7.5c-4.6-2.122-8.7-5.591-12.6-10.292a48.751,48.751,0,0,1-9.183-17.49,6.939,6.939,0,0,1-5.891-1.5c-3.4-2.8-4.8-6.7-5.651-9.244A20.037,20.037,0,0,1,251.275,96.973Z"/><path class="b" d="M238.545,178.732a59.916,59.916,0,0,1,14.572-11.543c5-2.9,10.857-4.5,16.336-6.207,2.938-.919,1.684-5.554-1.276-4.629-5.866,1.834-12.132,3.585-17.483,6.691a64.214,64.214,0,0,0-15.543,12.293c-2.053,2.3,1.331,5.7,3.394,3.4Z"/><path class="b" d="M125.35,142.54c12.676,2.879,26.455,5.977,36.515,14.806a27.44,27.44,0,0,1,6.185,8.264,48.133,48.133,0,0,1,3.166,9.493c1.97,7.411,3.674,14.884,4.979,22.442,1.528,8.855,2.507,17.788,3.24,26.741a2.462,2.462,0,0,0,2.4,2.4,2.418,2.418,0,0,0,2.4-2.4,283.017,283.017,0,0,0-8.008-49.013,78.191,78.191,0,0,0-3.063-9.921,33.028,33.028,0,0,0-6.179-9.7,39.1,39.1,0,0,0-8.106-6.34,61.273,61.273,0,0,0-8.808-4.546c-7.525-3.181-15.5-5.048-23.445-6.852-3.008-.683-4.292,3.944-1.276,4.629Z"/><path class="c" d="M143.254,239.549c-2.693,4.234-4.374,8.488-6.4,14.364H260.944a79.94,79.94,0,0,0-12.75-20.5c-4.477-5.3-13.348-10.023-22.489-13.373-3.32,5.317-13.106,10.05-23.052,10.652a63.563,63.563,0,0,1-16.74-1.14c-5.924-1.232-11.724-3.905-15.566-8.633-8.342,3.28-18.548,7.95-22.471,12.494A52.129,52.129,0,0,0,143.254,239.549Z"/><path class="a" d="M233.394,165.939a5.414,5.414,0,0,1,4.332-1.267,5.11,5.11,0,0,1,3.675,2.444,7.224,7.224,0,0,1,.757,2.907,21.657,21.657,0,0,1-2.209,11.481,13.751,13.751,0,0,1-3.559,4.672,4.2,4.2,0,0,1-4.775.751c-.387,1.522-.9,2.853-1.128,3.5-1.231,3.12-8.127,14.188-16.8,18.243.048.392.123.839.21,1.347.459,2.67,1.2,5.687,4.755,7.649.236.074,4.868,2.272,5.228,2.434l1.376.616-.313.392c-3.889,4.867-13.021,9.018-22.294,9.579a63.563,63.563,0,0,1-16.74-1.14c-5.487-1.141-10.868-3.518-14.686-7.62l-.88-.945,2.1-.882c.385-.162,4.992-2.36,5.253-2.434,3.526-1.962,4.284-4.979,4.743-7.649.038-.162.062-.311.087-.471a34.367,34.367,0,0,1-12.145-9.022,38.936,38.936,0,0,1-7.743-13.188,4.137,4.137,0,0,1-4.252-.939,13.764,13.764,0,0,1-3.56-4.672,21.657,21.657,0,0,1-2.208-11.481,7.206,7.206,0,0,1,.756-2.907,5.114,5.114,0,0,1,3.676-2.444,5.416,5.416,0,0,1,4.332,1.267s-6.636-29.034,34.034-29.034S233.394,165.939,233.394,165.939Z"/><path class="d" d="M252.09,142.079c-2.979-3.061-3.977-5.844-4.939-10.215a55.123,55.123,0,0,0-2.875-9.566,16.281,16.281,0,0,0-4.035-5.67c-4.8-4.278-9.033-5.855-15.027-5.008-4.661.661-8.951,2.585-10.876,6.713l0,.007q-1.5-.675-3.057-1.224a43.1,43.1,0,0,0-14.348-2.353,40.972,40.972,0,0,0-24.307,7.481c-7.584,5.44-16.173,15.13-16.86,30.815a61.514,61.514,0,0,0,1.02,11.894,1.431,1.431,0,0,1,.267-.059,5.416,5.416,0,0,1,4.332,1.267l1.221,1.1a16.5,16.5,0,0,1,8.961-10.985c.128-.059.256-.117.385-.173,6.569,0,23.467,0,23.467,0a30.191,30.191,0,0,0,6.179-1.8,25.6,25.6,0,0,0,8.4-7.5,21.227,21.227,0,0,1,14.5,8.381,30.694,30.694,0,0,1,5.288,10.8c1.938-.019,3.6-.047,3.6-.047a5.41,5.41,0,0,1,3.967-1.308,53.25,53.25,0,0,0,.748-11.572,41.981,41.981,0,0,0-2.132-11.543l1.806.736C242.142,144.073,246.768,143.748,252.09,142.079Z"/><path class="b" d="M180.134,209.546c0,.034.126-.7.047-.4-.026.1-.04.2-.058.3-.024.122-.043.244-.066.366-.054.29-.111.58-.176.868a13.434,13.434,0,0,1-.486,1.688c-.034.092-.241.609-.076.208.156-.381-.032.056-.074.143a8.63,8.63,0,0,1-.469.841c-.088.139-.184.273-.277.409-.24.353.307-.354.02-.029a10.144,10.144,0,0,1-.732.763c-.137.126-.281.243-.422.363-.2.169.152-.125.159-.125-.043,0-.169.121-.206.147-.167.114-.353.208-.512.33-.334.255.2-.045.218-.045a4.4,4.4,0,0,0-1.168.5c-.836.383-1.666.776-2.5,1.167-.7.331-1.4.682-2.118.988a2.4,2.4,0,0,0-1.1,1.435,2.452,2.452,0,0,0,.242,1.849,2.421,2.421,0,0,0,1.434,1.1,2.821,2.821,0,0,0,1.85-.242c1.535-.657,3.027-1.426,4.545-2.123l.429-.194c.448-.2-.591.287-.3.127a15.051,15.051,0,0,0,1.405-.756,14.143,14.143,0,0,0,1.325-1.029,10.907,10.907,0,0,0,2.788-4.125,12.957,12.957,0,0,0,.628-2,12.006,12.006,0,0,0,.453-2.53,2.4,2.4,0,0,0-4.8,0Z"/><path class="b" d="M211.29,208.664c.422,3.22,1.079,6.392,3.329,8.877a11.229,11.229,0,0,0,2.1,1.755,5.678,5.678,0,0,0,1.316.69c.163.055-.727-.322-.447-.189.063.03.129.058.193.087.858.387,1.708.792,2.56,1.193.778.365,1.552.742,2.335,1.1a2.461,2.461,0,0,0,3.284-.861,2.429,2.429,0,0,0-.861-3.284c-1.491-.674-2.96-1.4-4.444-2.082-.237-.11-.474-.219-.713-.323a4.415,4.415,0,0,0-.631-.266c.047.012.521.282.307.093a2.043,2.043,0,0,0-.243-.148c-.156-.1-.306-.2-.459-.3-.045-.031-.291-.215-.04-.025s-.046-.042-.094-.083a8.256,8.256,0,0,1-.766-.742,3.4,3.4,0,0,0-.305-.358s.275.4.143.181c-.052-.086-.117-.165-.173-.248a8.557,8.557,0,0,1-.487-.826c-.066-.128-.125-.259-.189-.389-.174-.354.176.483,0-.018a15.183,15.183,0,0,1-.557-1.929c-.067-.306-.126-.613-.181-.921-.04-.226-.079-.454-.116-.681-.027-.16-.141-.955-.054-.294a2.645,2.645,0,0,0-.7-1.7,2.442,2.442,0,0,0-1.7-.7c-1.161.052-2.576,1.067-2.4,2.4Z"/><path class="b" d="M216.411,119.544c1.44-2.951,4.166-4.45,7.269-5.2a15.351,15.351,0,0,1,9.684.485,17.675,17.675,0,0,1,7.816,6.66c2.063,3.372,2.882,7.609,3.747,11.417a22.126,22.126,0,0,0,5.466,10.869l1.059-4.012c-4.356,1.339-8.706,1.915-13.031.174a2.417,2.417,0,0,0-2.953,1.676,2.459,2.459,0,0,0,1.677,2.953c5.045,2.03,10.5,1.387,15.583-.174a2.427,2.427,0,0,0,1.059-4.012c-2.751-2.878-3.657-6.254-4.52-10.046-.963-4.232-2.152-8.913-4.745-12.461a23.11,23.11,0,0,0-9.911-7.688,20.167,20.167,0,0,0-11.851-.552c-4.347.97-8.485,3.372-10.494,7.488a2.462,2.462,0,0,0,.861,3.283,2.422,2.422,0,0,0,3.284-.861Z"/><path class="b" d="M235.091,167.636a2.9,2.9,0,0,1,4.238.691,6.87,6.87,0,0,1,.5,3.07,18.287,18.287,0,0,1-.263,3.665,19.3,19.3,0,0,1-2.584,6.83c-.9,1.425-2.371,3.409-4.118,2.943-2.988-.8-4.262,3.832-1.276,4.628,3.922,1.046,6.993-1.484,9.131-4.534a23.072,23.072,0,0,0,3.743-10.4c.421-3.447.423-7.828-2.37-10.336a7.879,7.879,0,0,0-10.4.044,2.418,2.418,0,0,0,0,3.394,2.451,2.451,0,0,0,3.394,0Z"/><path class="b" d="M163.087,164.464a7.883,7.883,0,0,0-10.4-.044c-2.792,2.506-2.791,6.891-2.37,10.336a23.059,23.059,0,0,0,3.742,10.4c2.14,3.052,5.2,5.581,9.131,4.534,2.982-.8,1.717-5.426-1.276-4.628-1.744.465-3.22-1.519-4.118-2.943a19.275,19.275,0,0,1-2.584-6.83,17.991,17.991,0,0,1-.266-3.469,7.142,7.142,0,0,1,.506-3.266,2.9,2.9,0,0,1,4.238-.691,2.466,2.466,0,0,0,3.394,0,2.42,2.42,0,0,0,0-3.394Z"/><path class="b" d="M229.68,184.335a30.167,30.167,0,0,1-1.507,5.455c-.132.381.284-.532.049-.12-.1.169-.17.36-.257.536-.187.378-.388.749-.594,1.117a44.948,44.948,0,0,1-3.94,5.867c-3.568,4.5-8.177,9.121-13.984,10.39-3.016.659-1.739,5.287,1.276,4.628,6.595-1.441,12.022-6.5,16.1-11.624,3.528-4.435,6.638-9.255,7.483-14.973a2.48,2.48,0,0,0-1.676-2.953,2.419,2.419,0,0,0-2.953,1.677Z"/><path class="b" d="M159.384,184.823a41.956,41.956,0,0,0,10.173,18.339c4.88,5.142,11.191,9.33,18.324,10.337a2.482,2.482,0,0,0,2.952-1.677,2.417,2.417,0,0,0-1.676-2.952c-12.594-1.777-22.106-13.568-25.144-25.323-.773-2.988-5.4-1.721-4.629,1.276Z"/><path class="b" d="M239.721,165c1.828-11.185.709-23.058-5.5-32.791a43.446,43.446,0,0,0-25.682-18.434,46.439,46.439,0,0,0-32.336,3.463,43.284,43.284,0,0,0-17.685,17.093,41.81,41.81,0,0,0-4.889,15.544,54.812,54.812,0,0,0,.707,15.129,2.418,2.418,0,0,0,2.952,1.676,2.457,2.457,0,0,0,1.676-2.952c-1.283-7.888-1.138-16.678,2.372-24.35a38.721,38.721,0,0,1,13.89-16.01,40.647,40.647,0,0,1,27.65-5.833A39.379,39.379,0,0,1,227.817,131.5c7.357,8.954,9.1,21.057,7.275,32.232a2.473,2.473,0,0,0,1.676,2.952A2.419,2.419,0,0,0,239.721,165Z"/><path class="b" d="M262.743,252.043a75.818,75.818,0,0,0-13.289-20.831c-5.514-6.12-13.682-9.821-21.205-12.77a2.419,2.419,0,0,0-2.953,1.676,2.456,2.456,0,0,0,1.677,2.952c6.86,2.69,14.358,6.137,19.309,11.785a73.869,73.869,0,0,1,12.317,19.61,2.413,2.413,0,0,0,3.283.861,2.463,2.463,0,0,0,.861-3.283Z"/><path class="b" d="M139.164,254.551c2.113-6.1,4.519-11.983,8.5-17.131a24.722,24.722,0,0,1,5.916-5.685,68.688,68.688,0,0,1,8.85-4.843c3.489-1.642,7.057-3.1,10.658-4.477a2.469,2.469,0,0,0,1.677-2.952,2.42,2.42,0,0,0-2.953-1.677c-6.818,2.6-13.747,5.4-19.925,9.33-5.6,3.562-9.724,8.9-12.734,14.767a87.46,87.46,0,0,0-4.618,11.392c-1.013,2.925,3.622,4.182,4.628,1.276Z"/><path class="b" d="M213.724,150.064a20.178,20.178,0,0,1,8.99,6.7,27.6,27.6,0,0,1,4.063,7.6q.278.793.517,1.6c.064.215.125.43.185.646q.067.243.131.487.175.788.169-.954l.861-.861-.12.08,1.211-.327-.154-.014a2.418,2.418,0,0,0-2.4,2.4,2.45,2.45,0,0,0,2.4,2.4c2,.177,3.038-1.948,2.731-3.645a22.211,22.211,0,0,0-1.13-3.72,32.5,32.5,0,0,0-3.7-7.262A25.728,25.728,0,0,0,215,145.435a2.422,2.422,0,0,0-2.952,1.676,2.449,2.449,0,0,0,1.676,2.953Z"/><path class="b" d="M210.807,138.513a17.426,17.426,0,0,1-5.616,10.206,26.75,26.75,0,0,1-4.8,3.518c-.138.084-.5.187.088-.019-.182.064-.361.139-.543.2-.478.171-.963.322-1.449.466-1.219.361-2.455.661-3.7.909a2.425,2.425,0,0,0-1.677,2.952,2.45,2.45,0,0,0,2.953,1.677,25.273,25.273,0,0,0,6.752-2.045,26.623,26.623,0,0,0,5.771-4.268,21.986,21.986,0,0,0,6.85-12.324,2.477,2.477,0,0,0-1.676-2.953,2.418,2.418,0,0,0-2.952,1.677Z"/><path class="b" d="M191.88,138.568a34.068,34.068,0,0,1-6.867,9.728c-2.83,2.669-6.548,3.305-10.169,4.3a20.819,20.819,0,0,0-9.751,5.405,18.927,18.927,0,0,0-4.978,9.473,2.464,2.464,0,0,0,1.677,2.952,2.422,2.422,0,0,0,2.952-1.676,14.5,14.5,0,0,1,4.817-8.372c2.676-2.3,6.064-3.012,9.381-3.891A20.879,20.879,0,0,0,189,151.1a39.68,39.68,0,0,0,7.024-10.113,2.462,2.462,0,0,0-.861-3.284,2.424,2.424,0,0,0-3.284.861Z"/><path class="b" d="M169.53,223.625c5.772,6.079,13.991,8.342,22.077,9.218,8.644.936,17.4.247,25.423-3.258a25.5,25.5,0,0,0,9.614-6.779,2.47,2.47,0,0,0,0-3.394,2.417,2.417,0,0,0-3.394,0c-4.109,5.023-11.083,7.472-17.284,8.51a51.369,51.369,0,0,1-11.963.335,46.593,46.593,0,0,1-11.525-2.119,23.181,23.181,0,0,1-9.554-5.907c-2.132-2.244-5.522,1.154-3.394,3.394Z"/><path class="b" d="M341.8,112.562a49.3,49.3,0,0,1-2.812,8.426c.3-.742-.145.3-.249.519-.2.423-.418.841-.638,1.256-.508.956-1.052,1.893-1.618,2.815a50.876,50.876,0,0,1-10.991,12.969,19.986,19.986,0,0,1-8.1,4.162c-3.011.687-1.737,5.316,1.276,4.629,6.277-1.432,11.525-5.977,15.643-10.725a56.057,56.057,0,0,0,8.775-13.125c.123-.27.239-.543.354-.816.012-.027.371-.875.207-.5-.148.339.014-.016.039-.07.115-.251.219-.509.326-.764.2-.477.4-.955.579-1.439a40.863,40.863,0,0,0,1.833-6.063c.634-3.013-3.992-4.3-4.629-1.276Z"/><path class="c" d="M332.321,33.18a49.652,49.652,0,0,0-9.01-4.948,45,45,0,0,0-19.747-3.576c-22.613-1.331-44.257,15.6-48.705,37.022-1.209,5.78-.744,14.723-.091,19.417.388,2.782,1.238,6.572,2.544,8.606.2-.025.4-.038.616-.045a6.413,6.413,0,0,1,4.629,1.715l4.7-6.958c3-2.026,6.561-3.564,11.251-5.5a18.247,18.247,0,0,0,3.362-1.622c-.021.385-.034.64-.034.64a2.124,2.124,0,0,0,.924,2.271,8.031,8.031,0,0,0,3.158.427,20.771,20.771,0,0,0,11.105-2.672c.442-.263.853-.527,1.237-.8h17.714a25.281,25.281,0,0,0,6.381-7.38,30.167,30.167,0,0,0,3.535-9.792H329.7c.715,5.787,3.047,11.242,5.544,16.512,1.5,3.169,3.345,6.565,6.61,7.843l2.728,7.348a6.417,6.417,0,0,1,4.642-1.679,7.308,7.308,0,0,1,2.511.512c3.281-8.247,1.6-21.689.231-28.467a42.076,42.076,0,0,0-3.36-9.984A41.764,41.764,0,0,0,338.47,38.319Z"/><path class="b" d="M260.427,113.376a51.81,51.81,0,0,0,11.161,22.364c5.307,6.208,12.159,11.147,20.379,12.4a2.479,2.479,0,0,0,2.953-1.677,2.419,2.419,0,0,0-1.677-2.952c-7.5-1.146-13.415-5.5-18.261-11.167a46.787,46.787,0,0,1-9.927-20.246c-.672-3.014-5.3-1.738-4.628,1.276Z"/><path class="b" d="M333.532,31.107a49.47,49.47,0,0,0-28.573-8.9,75.514,75.514,0,0,0-12.423.78,49.719,49.719,0,0,0-11.44,3.644c-14.163,6.376-26.216,19.941-28.762,35.548a62.267,62.267,0,0,0-.44,14.1c.307,4.645.867,9.416,2.826,13.687a2.42,2.42,0,0,0,3.284.861,2.457,2.457,0,0,0,.861-3.284,23.573,23.573,0,0,1-1.575-5.77c-.252-1.444-.4-2.92-.534-4.622a71.026,71.026,0,0,1-.034-11.686c.629-7.071,3.715-13.855,7.87-19.539,8.489-11.611,22.709-19.168,37.16-18.939,2.456.039,4.916-.045,7.368.148a41.456,41.456,0,0,1,7.718,1.386,47.56,47.56,0,0,1,14.272,6.73c2.554,1.75,4.958-2.407,2.422-4.145Z"/><path class="b" d="M353.859,91.618c2.809-6.687,2.473-14.684,1.705-21.75a80.892,80.892,0,0,0-1.578-9.8,47.736,47.736,0,0,0-5.11-12.665,45.2,45.2,0,0,0-8.709-10.783c-2.271-2.089-5.674,1.3-3.394,3.394a42.19,42.19,0,0,1,12.185,19.773,68.337,68.337,0,0,1,2.259,19.605,29.884,29.884,0,0,1-1.987,10.948,2.415,2.415,0,0,0,1.677,2.953,2.462,2.462,0,0,0,2.952-1.677Z"/><path class="b" d="M327.3,59.987a55.741,55.741,0,0,0,5.11,16.1c2,4.34,4.17,8.632,8.806,10.573a2.414,2.414,0,0,0,2.952-1.676,2.46,2.46,0,0,0-1.676-2.952c-3.241-1.357-4.791-5.855-6.125-8.777A47.24,47.24,0,0,1,332.1,59.987a2.48,2.48,0,0,0-2.4-2.4,2.413,2.413,0,0,0-2.4,2.4Z"/><path class="b" d="M264.254,89.674a9.356,9.356,0,0,0-10.216-1.533,9,9,0,0,0-4.709,6.188,23.183,23.183,0,0,0,3.4,18.094c2.314,3.439,5.946,6.529,10.37,5.961a2.478,2.478,0,0,0,2.4-2.4,2.413,2.413,0,0,0-2.4-2.4c-3.4.437-5.687-2.4-7.15-5.124a19.363,19.363,0,0,1-2.328-7.343c-.212-2.53-.189-5.574,1.309-7.746-.3.441.15-.161.238-.251.07-.071.564-.469.392-.35a3.91,3.91,0,0,1,1.442-.6,4.329,4.329,0,0,1,3.86.9c2.286,2.067,5.691-1.317,3.394-3.394Z"/><path class="b" d="M324.8,153.309c2.057,3.234,5.586,5.316,8.92,7.02,3.925,2.006,8.045,3.6,12.115,5.285a2.414,2.414,0,0,0,2.952-1.676,2.46,2.46,0,0,0-1.676-2.952c-3.6-1.488-7.217-2.908-10.7-4.666a37.246,37.246,0,0,1-4.75-2.784,10.876,10.876,0,0,1-1.6-1.329c-.24-.233-.466-.477-.688-.726-.126-.141-.288-.372-.087-.092-.118-.164-.23-.332-.339-.5a2.4,2.4,0,1,0-4.145,2.423Z"/><path class="b" d="M269.453,160.982a86.155,86.155,0,0,0,12.231-4.574c1.8-.908,3.9-1.98,4.506-4.04a31.9,31.9,0,0,0,.609-3.315l.657-3.685a2.467,2.467,0,0,0-1.676-2.952,2.421,2.421,0,0,0-2.952,1.676c-.383,2.149-.74,4.3-1.15,6.448a5.5,5.5,0,0,1-.116.552c-.006,0,.172-.324.189-.281,0,.01-.852.529-.948.589a19.779,19.779,0,0,1-1.944,1.062,43.322,43.322,0,0,1-4.571,1.84c-2.024.722-4.069,1.385-6.111,2.051a2.453,2.453,0,0,0-1.676,2.952,2.425,2.425,0,0,0,2.952,1.677Z"/><path class="b" d="M268.505,168.529a97.4,97.4,0,0,0,15.838,6.1,72.164,72.164,0,0,0,15.574,2.354,117.445,117.445,0,0,0,17.432-.491,58.592,58.592,0,0,0,12.075-2.32,51.34,51.34,0,0,0,8.906-4c2.707-1.489.288-5.636-2.423-4.144-1.125.619-2.256,1.227-3.413,1.784-.544.261-1.093.513-1.648.751.477-.205-.449.179-.594.235q-.562.219-1.13.42a48.273,48.273,0,0,1-10.35,2.32c-10.234,1.224-21.094,1.374-31.17-1.028a86.185,86.185,0,0,1-16.674-6.122,2.467,2.467,0,0,0-3.284.861,2.421,2.421,0,0,0,.861,3.283Z"/><path class="b" d="M317.185,79.232a27.359,27.359,0,0,0,8.658-11.118,37.411,37.411,0,0,0,3.013-14.284c.124-3.089-4.676-3.084-4.8,0a40.269,40.269,0,0,1-.743,6.9,26.476,26.476,0,0,1-1.614,4.959c-1.6,3.522-3.736,7.093-6.936,9.4a2.468,2.468,0,0,0-.861,3.284,2.418,2.418,0,0,0,3.283.861Z"/><path class="b" d="M279.436,77.933a4.391,4.391,0,0,0,2.693,4.591,13.277,13.277,0,0,0,5.056.5,24.025,24.025,0,0,0,9.8-2.376,22.1,22.1,0,0,0,7.924-6.7A32.382,32.382,0,0,0,310.02,64.9a50.515,50.515,0,0,0,2.22-11.27,2.414,2.414,0,0,0-2.4-2.4,2.457,2.457,0,0,0-2.4,2.4,44.392,44.392,0,0,1-2.106,10.155,27.25,27.25,0,0,1-5.224,8.49,17.485,17.485,0,0,1-12.925,5.957c-.769.016-1.551.028-2.32-.02a4.038,4.038,0,0,1-.894-.078c.279.115.219.395.265-.2a2.421,2.421,0,0,0-2.4-2.4,2.446,2.446,0,0,0-2.4,2.4Z"/><path class="b" d="M268.468,86.486c5.325-3.554,11.827-4.854,16.923-8.724,5.151-3.912,7.679-9.872,9.179-15.993.736-3-3.892-4.279-4.628-1.276-1.31,5.341-3.349,10.6-8.007,13.881-2.48,1.745-5.289,2.708-8.054,3.9a48.806,48.806,0,0,0-7.835,4.065c-2.558,1.707-.157,5.866,2.422,4.145Z"/><path class="b" d="M61.688,139.669c13.746,12.133,34.063,16.363,51.737,12.086a51.074,51.074,0,0,0,14.934-6.237c2.617-1.629.21-5.783-2.423-4.144-14.634,9.109-34.005,9.337-49.5,2.176a46.7,46.7,0,0,1-11.357-7.275c-2.308-2.037-5.715,1.345-3.394,3.394Z"/><path class="d" d="M53.622,37.967A51.342,51.342,0,0,1,73.653,11.226a50.134,50.134,0,0,1,30.786-8.744,50.4,50.4,0,0,1,28.233,9.29l6.483,5.316c8.029,7.737,15.125,19.625,15.3,36.83a54.492,54.492,0,0,1-2.579,16.771,8.291,8.291,0,0,0-1.888-.337,6.685,6.685,0,0,0-4.885,1.612l-6.6-5.587c-2.012-5.576-6.757-11.819-11.768-16.419a27.441,27.441,0,0,0-7.662-5.169l-8.456-1.316c-5.8,2.229-14.041,7.036-18.653,9.408A1.552,1.552,0,0,1,89.8,51.145a8.189,8.189,0,0,0-.1-2.985c-.262-1.253-1.2-1.812-1.958-1.446C81.289,49.84,71.967,58.157,66.658,63.7l-7.013,5.516A6.683,6.683,0,0,0,54.872,67.3a8.1,8.1,0,0,0-2.094.263A56.419,56.419,0,0,1,51.229,50.6,55.264,55.264,0,0,1,53.622,37.967Z"/><path class="b" d="M61.342,67.521a9.642,9.642,0,0,0-10.681-1.716,9.4,9.4,0,0,0-4.813,6.224c-1.762,6.139-.379,13.247,2.929,18.639,2.287,3.73,6.036,7.079,10.706,6.613a2.468,2.468,0,0,0,2.4-2.4,2.416,2.416,0,0,0-2.4-2.4c-3.644.363-5.991-2.885-7.429-5.818a20.269,20.269,0,0,1-2.116-7.751c-.132-2.6,0-5.757,1.633-7.925-.34.453.25-.238.328-.312.314-.3-.121.034.3-.25a4.146,4.146,0,0,1,1.733-.67,4.634,4.634,0,0,1,4.014,1.161c2.232,2.135,5.631-1.254,3.394-3.395Z"/><path class="b" d="M146.8,73.662a4.617,4.617,0,0,1,4.114-.75,3.453,3.453,0,0,1,2.1,1.309c1.524,2.23,1.476,5.49,1.164,8.071a20.713,20.713,0,0,1-2.7,7.7c-1.4,2.436-4,5.812-7.222,5.279a2.473,2.473,0,0,0-2.952,1.676,2.418,2.418,0,0,0,1.676,2.952c7.881,1.3,12.677-6.263,14.969-12.7,1.909-5.362,2.2-13.9-2.941-17.617a9.6,9.6,0,0,0-11.6.684,2.42,2.42,0,0,0,0,3.4,2.452,2.452,0,0,0,3.394,0Z"/><path class="b" d="M141.666,93.726A41.128,41.128,0,0,1,140,98.94c-.238.616-.484,1.226-.761,1.825-.114.248-.245.489-.358.737-.74,1.628.171-.293-.2.455a48.412,48.412,0,0,1-2.959,5.181,52.084,52.084,0,0,1-11.667,13.049,21.593,21.593,0,0,1-8.823,4.254,2.4,2.4,0,1,0,1.276,4.628c6.573-1.3,12.17-5.937,16.584-10.755a58.194,58.194,0,0,0,9.486-13.409c.095-.194.187-.388.275-.585a7.258,7.258,0,0,0,.315-.721c-.18.355.062-.1.1-.178.1-.2.19-.409.281-.615.212-.477.414-.959.614-1.441A42.973,42.973,0,0,0,146.295,95c.72-3-3.908-4.283-4.629-1.276Z"/><path class="b" d="M56.894,92.126a53.742,53.742,0,0,0,7.127,18.219c3.7,5.916,8.638,11.472,14.681,15.066a30.166,30.166,0,0,0,10.012,3.748,2.467,2.467,0,0,0,2.952-1.677,2.421,2.421,0,0,0-1.676-2.952c-7.738-1.4-13.748-6.1-18.616-12.1A48.964,48.964,0,0,1,61.522,90.85a2.422,2.422,0,0,0-2.952-1.676,2.448,2.448,0,0,0-1.676,2.952Z"/><path class="b" d="M133.883,9.7A55.371,55.371,0,0,0,82.045,3.969,54.365,54.365,0,0,0,52,35.3a57.39,57.39,0,0,0-1.714,32.124c.669,3.014,5.3,1.738,4.628-1.277-3.51-15.811.012-32.74,10.973-44.911a49.953,49.953,0,0,1,65.576-7.39,2.42,2.42,0,0,0,3.283-.861,2.448,2.448,0,0,0-.861-3.283Z"/><path class="b" d="M154.391,70.618a62.657,62.657,0,0,0,2.383-13.2,61.155,61.155,0,0,0-.765-13.274,50.282,50.282,0,0,0-7.862-20.129,52.264,52.264,0,0,0-6.885-8.187c-2.22-2.15-5.618,1.24-3.394,3.394A45.982,45.982,0,0,1,148.024,33.7a51.818,51.818,0,0,1,4.023,21.778,55.234,55.234,0,0,1-2.285,13.865c-.831,2.98,3.8,4.252,4.629,1.276Z"/><path class="b" d="M117.856,46.861a34.286,34.286,0,0,1,10.719,8.375,37.611,37.611,0,0,1,7.608,11.779,2.463,2.463,0,0,0,2.952,1.676,2.419,2.419,0,0,0,1.676-2.952,43.448,43.448,0,0,0-8.589-13.614,38.1,38.1,0,0,0-11.944-9.409,2.466,2.466,0,0,0-3.283.861,2.421,2.421,0,0,0,.861,3.284Z"/><path class="b" d="M68.355,65.4A95.7,95.7,0,0,1,85.808,50.562c.684-.431,1.38-.847,2.091-1.232a5.75,5.75,0,0,0,.534-.282c.332-.236.237.048.021-.089-.1-.062-1.607.559-1.045-.256-.083.12.048.4.06.536.076.865-.119,1.717-.041,2.572a3.954,3.954,0,0,0,1.635,2.876c1.949,1.391,3.8.441,5.647-.543,1.6-.85,3.183-1.719,4.774-2.577a106.46,106.46,0,0,1,11.765-5.78,2.471,2.471,0,0,0,1.676-2.952,2.417,2.417,0,0,0-2.952-1.676,103.56,103.56,0,0,0-11.04,5.26c-1.742.927-3.475,1.874-5.212,2.811q-1.048.566-2.1,1.123c-.554.292-.866.211-.12.448s.707.633.773-.315c.148-2.138-.337-4.741-2.377-5.854-1.929-1.053-3.86.2-5.518,1.178a73.971,73.971,0,0,0-9.759,7.175,124.39,124.39,0,0,0-9.658,9.021c-2.14,2.229,1.25,5.628,3.394,3.394Z"/><path class="b" d="M64.434,139.6q3.219-1.23,6.437-2.466a34.181,34.181,0,0,0,3.952-1.591c4.514-2.424,5.254-8.2,5.815-12.769a2.4,2.4,0,0,0-2.4-2.4,2.473,2.473,0,0,0-2.4,2.4q-.057.457-.02.173-.037.269-.08.535c-.041.266-.086.531-.133.8-.111.626-.236,1.25-.37,1.872a20.994,20.994,0,0,1-.71,2.681c-.043.119-.088.237-.134.355q.183-.425.018-.055c-.085.167-.163.336-.253.5-.105.191-.226.371-.339.557-.308.508.184-.142-.135.183-.133.135-.255.28-.393.411-.093.089-.188.174-.287.257.232-.17.236-.176.015-.016-.175.109-.343.224-.524.325a5.04,5.04,0,0,0-.5.251c.2-.074-.093.026-.139.043-.211.074-.418.158-.627.237q-1.046.4-2.09.8-2.989,1.146-5.979,2.29a2.456,2.456,0,0,0-1.677,2.952,2.428,2.428,0,0,0,2.953,1.677Z"/><path class="b" d="M60.428,135.658a167.591,167.591,0,0,0-22.58,8.777c-6.778,3.2-13.551,6.857-19.271,11.758-5.98,5.124-9.9,12.409-12.483,19.744C3.165,184.246,1.909,193.071.969,201.8a128.6,128.6,0,0,0-.228,29.354c1.026,8.386,2.823,17.426,7.723,24.5a23.154,23.154,0,0,0,8.717,7.829,23.308,23.308,0,0,0,12.775,2.091c9.03-1.019,16.574-6.114,22.781-12.5a121.993,121.993,0,0,0,15.2-19.233,133.366,133.366,0,0,0,9.829-19.273q1.314-3.058,2.585-6.134a2.414,2.414,0,0,0-1.676-2.953,2.462,2.462,0,0,0-2.952,1.677,184.158,184.158,0,0,1-9.1,19.525A112.581,112.581,0,0,1,54.412,244c-5.141,6.11-10.974,12.471-18.653,15.313-7.176,2.656-15.411,2.228-20.987-3.471-5.3-5.421-7.331-13.413-8.617-20.654a110.355,110.355,0,0,1-.914-27.708A137.517,137.517,0,0,1,9.1,182.485c1.975-7.383,5.093-14.826,10.353-20.5,4.407-4.753,10.373-8.086,16.062-11.048a155.373,155.373,0,0,1,21.169-9.02q2.5-.86,5.021-1.631c2.946-.9,1.69-5.536-1.276-4.629Z"/><path class="b" d="M196.675,177.588a33.068,33.068,0,0,1,.778,3.56l-.086-.638a2.18,2.18,0,0,1,.014.491l.085-.638a1.114,1.114,0,0,1-.054.221l.242-.573a.82.82,0,0,1-.078.142l.376-.486a.748.748,0,0,1-.117.115l.486-.376a2.306,2.306,0,0,1-.282.15l.573-.242a2.069,2.069,0,0,1-.475.138l.638-.085a1.957,1.957,0,0,1-.446,0l.638.086c-.168-.024-.333-.065-.5-.087a1.812,1.812,0,0,0-.957-.043,1.786,1.786,0,0,0-.893.284,2.4,2.4,0,0,0-.861,3.284,2.3,2.3,0,0,0,1.435,1.1c.433.059.854.167,1.3.187a4.247,4.247,0,0,0,1.976-.48,2.974,2.974,0,0,0,1.612-1.947,4.619,4.619,0,0,0-.017-2.033c-.193-1.147-.458-2.283-.753-3.408a2.473,2.473,0,0,0-1.1-1.434,2.4,2.4,0,0,0-3.284.861,2.522,2.522,0,0,0-.242,1.849Z"/><path class="b" d="M178.619,168.079c-.581,1.889-.2,6.233,3.376,6.6,4.729-.028,4.98-5.281,3.389-7.75C184.08,164.91,180.248,164.069,178.619,168.079Z"/><path class="b" d="M216.332,168.079c.582,1.889.2,6.233-3.375,6.6-4.729-.028-4.981-5.281-3.389-7.751C210.871,164.909,214.7,164.069,216.332,168.079Z"/><path class="b" d="M301.111,104.87a37.755,37.755,0,0,1,.873,4.071l-.086-.638a2.392,2.392,0,0,1,.013.561l.086-.638a1.291,1.291,0,0,1-.063.252l.242-.573a.979.979,0,0,1-.089.162l.375-.486a.867.867,0,0,1-.133.131l.485-.376a2.6,2.6,0,0,1-.322.17l.573-.242a2.4,2.4,0,0,1-.544.156l.638-.086a2.114,2.114,0,0,1-.509,0l.638.086c-.192-.028-.381-.075-.573-.1a1.823,1.823,0,0,0-.957-.043,1.794,1.794,0,0,0-.892.285,2.4,2.4,0,0,0-.861,3.284,2.3,2.3,0,0,0,1.434,1.1c.465.064.916.181,1.39.2a4.484,4.484,0,0,0,2.085-.5,3.074,3.074,0,0,0,1.688-2.018,4.956,4.956,0,0,0-.016-2.141c-.217-1.311-.514-2.61-.846-3.9a2.476,2.476,0,0,0-1.1-1.434,2.4,2.4,0,0,0-3.526,2.71Z"/><path class="b" d="M279.954,93.178c-.688,2.2-.265,7.283,3.915,7.731,5.526-.011,5.844-6.148,3.995-9.041C286.35,89.5,281.875,88.5,279.954,93.178Z"/><path class="b" d="M324.207,93.351c.671,2.209.209,7.284-3.974,7.7-5.526-.055-5.8-6.194-3.925-9.073C317.84,89.621,322.322,88.656,324.207,93.351Z"/><path class="b" d="M102.252,84.738c.287,1.256.553,2.526.728,3.8l-.086-.638c.043.319.084.638.13.956l-.085-.638a2.8,2.8,0,0,1,.015.731l.085-.638a1.373,1.373,0,0,1-.072.26l.241-.573a1.02,1.02,0,0,1-.1.166l.375-.485a.644.644,0,0,1-.089.092l.485-.375a1.847,1.847,0,0,1-.394.206l.573-.242a2.569,2.569,0,0,1-.5.138l.638-.086a2.161,2.161,0,0,1-.545,0l.638.086c-.22-.033-.434-.095-.654-.132a2.605,2.605,0,0,0-1.849.242,2.4,2.4,0,0,0-.861,3.284,2.337,2.337,0,0,0,1.434,1.1c.478.08.926.193,1.418.231A4.487,4.487,0,0,0,106,91.711a3.082,3.082,0,0,0,1.654-2.053,5.339,5.339,0,0,0-.024-2.216l.086.638a45.783,45.783,0,0,0-.836-4.618,2.42,2.42,0,0,0-2.952-1.677,2.454,2.454,0,0,0-1.677,2.953Z"/><path class="b" d="M80.436,71.891c-.782,2.277-.491,7.581,3.851,8.171,5.759.15,6.27-6.235,4.429-9.3C87.208,68.245,82.575,67.072,80.436,71.891Z"/><path class="b" d="M126.541,73.373c.634,2.322,0,7.6-4.368,7.906-5.756-.219-5.857-6.624-3.823-9.569C120.016,69.3,124.715,68.426,126.541,73.373Z"/><path class="b" d="M346.278,93.387a4.272,4.272,0,0,1,3.511-.931,4.1,4.1,0,0,1,1.8.7c-.14-.1.823.868.5.453,1.6,2.082,1.577,5.255,1.369,7.734a19.363,19.363,0,0,1-2.328,7.354c-1.223,2.283-3.612,5.7-6.643,5.29a2.483,2.483,0,0,0-2.952,1.676,2.418,2.418,0,0,0,1.676,2.953c7.649,1.042,12.133-6.234,14.179-12.576a21.9,21.9,0,0,0,.661-9.933,10.062,10.062,0,0,0-3.933-7.017,9.308,9.308,0,0,0-11.234.906c-2.312,2.058,1.092,5.443,3.394,3.394Z"/><path class="b" d="M296.621,125.438c.3-.16.6-.312.91-.459.521-.248-.5.176.1-.04.223-.08.445-.161.671-.231a14.162,14.162,0,0,1,1.866-.427c.462-.078-.232.01.081-.01.184-.012.368-.038.552-.052.445-.035.891-.053,1.337-.057q.624-.006,1.248.026c.191.011.383.024.574.041.065,0,.787.1.211.012a12.289,12.289,0,0,1,1.848.408,7.216,7.216,0,0,0,.763.27c-.072-.013-.5-.235-.213-.087.1.056.216.1.323.158.156.082.309.168.458.261.2.125.751.544,0-.036a2.467,2.467,0,0,0,3.394,0c.788-.858,1.061-2.574,0-3.394a13.4,13.4,0,0,0-8.347-2.46,17.033,17.033,0,0,0-8.2,1.932,2.422,2.422,0,0,0-.861,3.284,2.453,2.453,0,0,0,3.284.861Z"/><path class="a" d="M64.905,148.371c.611-2.084,1.279-4.182,2.042-6.294,1.824-5.048,3.724-9.047,6.529-12.058,2.375-2.55,8.093-5.248,11.405-6.206,4.185-1.21,7.78-2.188,11.938-1.108,3.632.943,4.489,4.9,5.975,9.328l.7,2.609a4.354,4.354,0,0,1,2.491,4.867c-.29,2.458-1.854,4.206-5.565,4.269,1,.431,1.787.778,1.787.778a4.312,4.312,0,0,1,2.71,5.286c-.558,2.271-3.051,3.107-4.674,3.035l-.621-.027.873.835a5.1,5.1,0,0,1,1.073,3.292c.029,1.766-2.025,3.765-3.5,4.111-1.8.424-3.937.8-6.826,1.379a32.691,32.691,0,0,1-2.2,6.651,12.581,12.581,0,0,1-7.335,6.753s-2.157,3.535-4.231,6.939c-5.882-3.067-14.459-7.96-19.363-11.3l.647-1.56C61.275,162.949,62.737,155.753,64.905,148.371Z"/><path class="b" d="M61.084,170.592c3.739-10.549,5.214-21.9,9.872-32.129a27.612,27.612,0,0,1,3.289-5.676,15.168,15.168,0,0,1,4.628-3.762,32.445,32.445,0,0,1,13.066-4.339c2-.149,4.671-.113,5.881,1.4,1.45,1.811,1.945,4.44,2.659,6.588.97,2.918,5.607,1.668,4.629-1.276-1.535-4.619-2.869-10.021-8.338-11.164-5.614-1.173-11.642.623-16.777,2.878a31.262,31.262,0,0,0-6.376,3.626,19.977,19.977,0,0,0-4.813,5.521c-3.105,5.018-4.915,10.918-6.525,16.554-1.953,6.833-3.446,13.8-5.824,20.506a2.423,2.423,0,0,0,1.677,2.952,2.448,2.448,0,0,0,2.952-1.676Z"/><path class="b" d="M86.053,134.942c2.88.241,5.762.467,8.64.735,1.493.139,2.984.288,4.473.463a14.144,14.144,0,0,1,2.527.387c.2.052.391.131.589.183.375.1-.384-.226.123.059.181.1.357.213.538.314.049.028.276.219.052.032-.267-.223.125.148.177.185.3.209-.108-.217.167.212s.061-.08.158.295c.039.151.085.3.119.448-.011-.049-.029-.326,0-.021a5.847,5.847,0,0,1-.028,1.275c.058-.482-.02.005-.075.211s-.251.639-.036.206c-.094.19-.2.367-.3.55-.132.226.093-.106.109-.125-.1.114-.208.219-.311.331-.053.059-.363.3-.114.111s-.031.015-.07.032c-.079.035-.649.327-.442.245a4.88,4.88,0,0,0-.561.156c-.157.039-.317.073-.476.1.328-.056-.17.017-.279.025a35.6,35.6,0,0,1-5.475-.309q-2.973-.249-5.946-.5a2.42,2.42,0,0,0-2.4,2.4,2.45,2.45,0,0,0,2.4,2.4q2.973.255,5.946.505a32.072,32.072,0,0,0,5.748.285c3.132-.306,5.9-1.866,6.816-5.04a7.188,7.188,0,0,0-2.905-8.246c-2.224-1.38-5.1-1.409-7.62-1.677-3.841-.407-7.692-.7-11.541-1.022a2.42,2.42,0,0,0-2.4,2.4,2.45,2.45,0,0,0,2.4,2.4Z"/><path class="b" d="M101,146.628a6.972,6.972,0,0,1,.645.328c.132.077.695.553.25.142.177.163.342.33.511.5-.417-.419.045.112.136.25.251.381-.06-.386.044.1.034.159.09.89.09.325,0,.095-.039.955.028.453a4.374,4.374,0,0,1-.215.859c.189-.538-.108.079-.154.189-.1.144-.069.1.091-.122-.081.09-.167.177-.256.259q-.3.26.062-.034-.149.1-.3.195c-.142.084-.828.327-.234.141-.222.07-.439.147-.666.2-.576.136-.019,0-.019.029a5.784,5.784,0,0,1-1.022.016c-3.378-.173-6.778-.462-10.135-.878a2.4,2.4,0,0,0-2.4,2.4,2.474,2.474,0,0,0,2.4,2.4c3.156.391,6.342.634,9.516.84a8.668,8.668,0,0,0,4.826-.916,6.428,6.428,0,0,0,3.286-5.929,6.786,6.786,0,0,0-4.058-5.9,2.461,2.461,0,0,0-3.284.861,2.429,2.429,0,0,0,.861,3.284Z"/><path class="b" d="M88.936,161.829c-.4,1.515-.785,3.04-1.3,4.521-.094.269-.2.534-.3.8-.2.538.226-.481-.013.031-.056.122-.111.245-.169.366a18.615,18.615,0,0,1-1.071,1.923c-.193.3-.4.6-.609.892-.265.369.16-.177-.028.035-.1.114-.195.236-.3.351a13.644,13.644,0,0,1-1.4,1.355c-.338.29.251-.156,0-.005-.123.076-.236.169-.356.25-.29.2-.59.377-.9.546q-.391.216-.8.405c-.09.042-.661.263-.1.052-.177.067-.352.139-.529.2a2.454,2.454,0,0,0-1.676,2.952,2.428,2.428,0,0,0,2.952,1.677,15.375,15.375,0,0,0,7.657-5.958c1.854-2.768,2.712-5.941,3.553-9.123a2.4,2.4,0,0,0-4.629-1.276Z"/><path class="b" d="M98.8,155.382a2.262,2.262,0,0,1,.177.19q-.356-.476-.149-.163a1.934,1.934,0,0,0,.186.356c-.141-.346-.179-.432-.116-.259.024.064.046.128.065.193.047.149.086.3.12.453s.04.3.084.441c-.057-.178-.069-.6-.028-.174.021.229.016.456.03.685.024.418.157-.559.013-.128a2.122,2.122,0,0,0-.118.385q.239-.54.076-.194c-.032.064-.065.126-.1.188-.083.147-.178.284-.269.426-.241.379.352-.375.014-.023-.1.106-.2.219-.3.323-.074.074-.413.3-.43.393l.263-.2c-.075.056-.15.11-.227.162-.111.076-.225.148-.342.214-.078.044-.595.3-.165.1.407-.187-.048,0-.148.024-.127.032-.256.059-.383.088-.6.134-1.192.258-1.79.378-1.549.312-3.1.6-4.653.913a2.415,2.415,0,0,0-1.676,2.952,2.46,2.46,0,0,0,2.952,1.676c1.742-.348,3.489-.67,5.229-1.029a14.743,14.743,0,0,0,1.92-.449,7.672,7.672,0,0,0,2.524-1.529,6.624,6.624,0,0,0,2.41-4.875,7.146,7.146,0,0,0-1.774-4.911,2.4,2.4,0,0,0-3.394,3.394Z"/><path class="a" d="M311.408,205.837c1.078,4.224,2.049,7.933,3.19,11.843,6.713-2.831,14.821-6.314,21.4-9.159-2.759-5.311-5.409-10.668-8.084-16.076-1.38-4.232-4.511-13.646-5.543-17.774-1.785-7.131-3.374-12.5-3.7-14.331-1.218-5.612-3.073-16.9-3.826-21.949-.522-3.478-2.227-5.461-5.334-5.078-2.945.371-4.336,4.267-4.209,6.644a148.076,148.076,0,0,0,1.566,17.438s.153,1.19.333,2.583c-2.29-.821-6.915-2.513-8.921-3.043a4.228,4.228,0,0,0-4.686,2.358,4.17,4.17,0,0,0,2.4,5.44l.624.28-.4-.092c-2.748-.625-5.149-.5-5.982,2.348-.77,2.63.376,4.305,2.983,5.575l1.385.675-.721-.007a4.8,4.8,0,0,0-4.742,3.351,4.971,4.971,0,0,0,1.46,4.545c1.607,1.6,4.19,3.893,5.861,5.218l1.483,1.993c1.3,5.728,3.849,10.76,8.58,14.261C307.733,203.773,309.9,204.933,311.408,205.837Z"/><path class="b" d="M311.328,158.737c-3.939-1.4-7.9-2.811-11.915-3.979A6.737,6.737,0,0,0,291.9,157.4a6.553,6.553,0,0,0,2.023,8.914,30.825,30.825,0,0,0,4.97,2.331c1.6.714,3.21,1.424,4.835,2.086a2.414,2.414,0,0,0,2.952-1.676A2.459,2.459,0,0,0,305,166.1c-.091-.037-.811-.337-.371-.151-.252-.106-.5-.215-.754-.323q-.964-.417-1.924-.845-2.006-.889-4-1.792a8.825,8.825,0,0,1-1.607-.823c.283.206-.015-.023-.057-.069-.1-.111-.212-.21-.31-.327.265.317-.153-.29-.215-.419.2.427-.055-.289-.082-.42.1.467.029-.114.025-.3-.007-.359-.1.364,0,.013.027-.1.057-.209.076-.311.072-.382.051-.172-.009-.043,0,.011.312-.544.155-.316s.108-.115.153-.165a2.587,2.587,0,0,1,.228-.216c-.335.3.222-.11.368-.194.116-.067.4-.118-.02.007.094-.028.186-.067.282-.088a2.8,2.8,0,0,0,.375-.089c.255-.1-.432-.011,0,.007.14.006.708.074.354-.008-.4-.1.138.056.213.076.321.088.639.187.956.285,1.876.578,3.736,1.206,5.6,1.833,1.879.635,3.757,1.273,5.625,1.937a2.4,2.4,0,1,0,1.276-4.629Z"/><path class="b" d="M296.858,162.607a9.223,9.223,0,0,0-5.625.119,6.027,6.027,0,0,0-3.486,4.68,6.371,6.371,0,0,0,1.61,5.644c1.357,1.429,3.277,2.179,5.018,3.011s3.481,1.6,5.243,2.357a2.467,2.467,0,0,0,3.284-.861c.544-1.031.371-2.756-.861-3.283-1.349-.577-2.693-1.163-4.023-1.782-1.449-.675-2.961-1.31-4.337-2.122q-.24-.141-.471-.3a1.319,1.319,0,0,0-.187-.132c.007,0,.363.322.193.148-.115-.118-.251-.216-.369-.333-.078-.078-.409-.485-.17-.16.251.343-.06-.1-.109-.184a2.843,2.843,0,0,0-.177-.338c.033.04.187.571.1.22-.014-.062-.037-.123-.054-.184s-.027-.126-.045-.187c-.091-.317.043.174.026.25a2.653,2.653,0,0,0-.018-.477c0-.1.058-.582,0-.183-.066.427.044-.189.068-.287.045-.188.1-.374.161-.556.192-.558-.176.262.03-.067.038-.059.225-.3.218-.364,0,.044-.4.44-.13.17.046-.046.087-.095.133-.141s.093-.085.138-.13c.23-.232-.124.138-.191.147a1.821,1.821,0,0,0,.429-.242c-.018.016-.491.148-.286.126a2.484,2.484,0,0,0,.3-.092c.108-.028.622-.112.19-.054s.156,0,.287,0a5.427,5.427,0,0,0,1.083.058s-.524-.083-.261-.035c.1.019.2.033.307.052.236.042.471.091.7.143a2.4,2.4,0,1,0,1.276-4.628Z"/><path class="b" d="M293.885,171.113a7.558,7.558,0,0,0-5.685,2.536,6.544,6.544,0,0,0-1.193,6.393,12.242,12.242,0,0,0,3.71,4.786c1.313,1.206,2.655,2.385,4.05,3.5a2.461,2.461,0,0,0,3.394,0,2.427,2.427,0,0,0,0-3.394c-1.121-.892-2.2-1.831-3.271-2.788q-.843-.756-1.667-1.535c-.269-.255-.537-.512-.8-.773-.114-.114-.218-.25-.34-.352q-.165-.193.043.08c-.063-.084-.122-.17-.178-.258-.1-.146-.177-.3-.265-.448-.3-.517.085.386-.082-.186-.047-.161-.076-.341-.136-.5q-.052-.266,0,.132c-.012-.1-.019-.2-.022-.307-.007-.172.011-.344.007-.516.011.472,0,.016.047-.144l.049-.161q.135-.37-.048.1c-.028-.073.191-.3.214-.372.083-.235-.3.306,0,0,.124-.132.249-.256.378-.383.338-.332-.361.184.094-.073.136-.076.264-.165.4-.239.23-.124.329-.142.029-.036.183-.065.362-.129.549-.178.111-.03.714-.109.13-.058.2-.017.4-.027.6-.029a2.4,2.4,0,1,0,0-4.8Z"/><path class="b" d="M309.189,156.757q-.852-5.67-1.186-11.386c-.117-1.949-.358-3.957-.3-5.908a5.563,5.563,0,0,1,1.181-3.2,1.6,1.6,0,0,1,.971-.585,1.723,1.723,0,0,1,1.785.619c-.06-.074.27.45.329.577a8.523,8.523,0,0,1,.584,2.266c.492,3.07.962,6.143,1.478,9.21,1,5.927,2.031,11.834,3.589,17.642,1.848,6.888,3.647,13.741,5.842,20.529q.832,2.576,1.679,5.147a43.658,43.658,0,0,0,2.639,5.881c1.924,3.847,3.918,7.656,5.934,11.454,1.449,2.729,5.594.307,4.145-2.423-1.927-3.629-3.836-7.268-5.678-10.941a38.2,38.2,0,0,1-2.37-5.12q-.782-2.388-1.56-4.777c-2.353-7.259-4.286-14.592-6.253-21.963-1.694-6.347-2.713-12.865-3.777-19.342q-.408-2.483-.795-4.969a16.343,16.343,0,0,0-1.245-4.884,6.672,6.672,0,0,0-9.456-2.739,8.8,8.8,0,0,0-3.435,5.06c-.612,2.2-.309,4.484-.186,6.732.263,4.829.737,9.612,1.455,14.395a2.417,2.417,0,0,0,2.953,1.676,2.46,2.46,0,0,0,1.676-2.952Z"/><path class="b" d="M295.633,189.257a28.742,28.742,0,0,0,4.971,11.1c2.611,3.4,5.969,5.4,9.593,7.555l-1.1-1.434c.927,3.6,2.16,7.094,3.219,10.652.88,2.953,5.513,1.695,4.629-1.276-.8-2.7-1.739-5.357-2.518-8.063-.225-.78-.4-1.579-.641-2.353a3.331,3.331,0,0,0-1.8-2.044c-1.244-.727-2.519-1.411-3.717-2.213-4.482-3-6.825-8.108-8.007-13.2-.7-3.008-5.328-1.734-4.628,1.276Z"/><path class="b" d="M205.2,191.662c-1.9-1.859-4.843-2.449-7.4-2.447s-5.5.588-7.4,2.447a2.4,2.4,0,0,0,3.394,3.394c.093-.091.456-.382.064-.079s.067-.035.184-.107q.222-.137.455-.253c.1-.05.22-.091.317-.148-.133.079-.537.205-.161.075a10.637,10.637,0,0,1,1.517-.415c.127-.024.674-.177.054-.021a3.03,3.03,0,0,1,.466-.048c.371-.031.742-.045,1.114-.045.34,0,.681.011,1.02.037a3.625,3.625,0,0,0,.562.056c-.087.075-.507-.08-.029.006a9.282,9.282,0,0,1,1.537.407c.2.071.5.279-.1-.052.085.047.178.081.265.124q.26.126.506.277c.124.077.24.173.365.247-.685-.406-.319-.257-.119-.061a2.4,2.4,0,0,0,3.394-3.394Z"/><path class="b" d="M96.906,106.243c.307-.175.617-.348.935-.5.09-.045.182-.086.272-.13.351-.171-.034-.022-.152.058a3.349,3.349,0,0,1,.767-.286,13.926,13.926,0,0,1,1.857-.475c.21-.039.422-.074.634-.105-.363.053-.006,0,.167-.012q.7-.07,1.407-.092c.856-.028,1.694.035,2.546.087.312.019-.382-.071.079.009.189.033.377.065.565.1.282.059.564.126.841.206s.528.168.789.262c.483.173-.144-.057-.141-.064s.312.147.329.156a6.46,6.46,0,0,1,.9.545,2.409,2.409,0,0,0,3.283-.861,2.468,2.468,0,0,0-.861-3.284c-2.313-1.685-5.56-2.046-8.327-1.959a17.607,17.607,0,0,0-8.31,2.2,2.4,2.4,0,1,0,2.423,4.144Z"/><path class="b" d="M352.12,223.259c-1.973-4.718-3.951-9.434-5.879-14.171-.982-2.412-2.03-6.314-5.525-5.2-1.873.6-3.7,1.6-5.508,2.379-7.969,3.444-15.942,6.88-23.95,10.233q-2.451,1.026-4.909,2.035a5.226,5.226,0,0,0-2.789,1.825c-.732,1.165-.473,2.4-.186,3.655,1.077,4.7,2.223,9.379,3.539,14.015,2.95,10.391,6.429,21.208,13.164,29.817a28.676,28.676,0,0,0,11.846,9.281,22.418,22.418,0,0,0,14.977.3,32.551,32.551,0,0,0,13.092-7.873,49.736,49.736,0,0,0,8.557-12.027,120.172,120.172,0,0,0,14.578-62.073,35.518,35.518,0,0,0-2.851-13.117,34.791,34.791,0,0,0-6.535-9.857c-5.7-6.1-13.384-10.091-21.321-12.444-2.128-.631-4.288-1.138-6.468-1.554A2.464,2.464,0,0,0,343,160.163a2.422,2.422,0,0,0,1.676,2.953c13.313,2.539,27.137,9.458,31.97,23A33.38,33.38,0,0,1,377.978,191a38.762,38.762,0,0,1,.411,6.447,119.559,119.559,0,0,1-.5,14.01,113.852,113.852,0,0,1-11.32,39.49,73.274,73.274,0,0,1-6.763,11.584c-4.882,6.491-12.855,11.675-21.236,11.247-8.749-.447-15.019-8.11-18.88-15.215-4.417-8.129-7.038-17.375-9.367-26.285q-.793-3.032-1.514-6.082-.312-1.31-.614-2.621a5.366,5.366,0,0,0-.305-1.328c-.5-.785-.547,1.583-.945,1.193a7.326,7.326,0,0,0,.68-.277c3.072-1.255,6.13-2.543,9.187-3.835q10.66-4.506,21.276-9.114l2.335-1.011,1.1-.475c.132-.057.269-.109.4-.173.731-.358.165.2-.25.029l-1.059-.617q-.048-.28.075.106l.261.646.421,1.038q.438,1.079.879,2.156.819,2,1.648,4,1.79,4.316,3.6,8.621a2.482,2.482,0,0,0,2.953,1.677,2.416,2.416,0,0,0,1.676-2.953Z"/><path class="b" d="M54.05,171.485A102.11,102.11,0,0,0,66.685,179.6c4.381,2.526,8.813,5.023,13.389,7.183a2.469,2.469,0,0,0,3.284-.861,2.421,2.421,0,0,0-.861-3.284c-4.474-2.111-8.809-4.548-13.095-7.014-2.354-1.354-4.691-2.738-6.991-4.182-1.016-.638-2.026-1.287-3.018-1.961q-.587-.4-1.163-.809c-.173-.124-.344-.251-.517-.377-.534-.389,0,.011-.269-.2a2.476,2.476,0,0,0-3.394,0,2.416,2.416,0,0,0,0,3.394Z"/></svg>